<?xml version="1.0" encoding="UTF-8"?>
<!-- Generator: Adobe Illustrator 16.0.5, SVG Export Plug-In . SVG Version: 6.00 Build 0)  -->
<!DOCTYPE svg PUBLIC "-//W3C//DTD SVG 1.1//EN" "http://www.w3.org/Graphics/SVG/1.1/DTD/svg11.dtd">
<svg version="1.1" id="Layer_1" xmlns="http://www.w3.org/2000/svg" xmlns:xlink="http://www.w3.org/1999/xlink" x="0px" y="0px" width="2239.369px" height="2239.371px" viewBox="0 0 2239.369 2239.371" enable-background="new 0 0 2239.369 2239.371" xml:space="preserve">
<polygon fill="#D8D8D8" points="696.173,1659.312 816.69,1734.736 854.599,1657.437 747.484,1593.523 655.826,1505.07   584.214,1398.259 510.247,1437.123 591.912,1558.685 "/>
<polygon fill="#C3C3C3" points="901.44,1396.16 963.649,1435.08 1000.384,1360.179 952.75,1330.371 911.551,1290.619   879.297,1242.582 804.618,1282.08 847.638,1344.23 "/>
<polygon fill="#D8D8D8" points="696.173,1659.312 816.69,1734.736 854.599,1657.437 747.484,1593.523 655.826,1505.07   584.214,1398.259 510.247,1437.123 591.912,1558.685 "/>
<polygon fill="#B6B6B6" points="747.484,1593.525 854.6,1657.437 890.75,1583.726 798.795,1527.736 719.765,1451.457   656.211,1360.181 584.214,1398.261 655.826,1505.068 "/>
<polygon fill="#FBFBFB" points="798.795,1527.736 890.748,1583.726 926.493,1510.845 850.13,1461.945 783.7,1397.845   731.464,1320.511 656.211,1360.179 719.764,1451.457 "/>
<polygon fill="#929292" points="850.13,1461.947 926.493,1510.847 963.65,1435.08 901.441,1396.158 847.638,1344.23   804.618,1282.078 731.464,1320.509 783.7,1397.843 "/>
<polygon fill="#C3C3C3" points="901.44,1396.16 963.649,1435.08 1000.384,1360.179 952.75,1330.371 911.551,1290.619   879.297,1242.582 804.618,1282.08 847.638,1344.23 "/>
<polygon fill="none" stroke="#FFFFFF" stroke-width="1.78" points="1000.385,1360.179 952.753,1330.371 911.552,1290.617   879.298,1242.582 510.247,1437.123 591.913,1558.685 696.174,1659.312 816.69,1734.736 "/>
<polygon fill="#B0B0B0" points="1120.355,425.829 1120.355,843.01 1169.293,847.448 1244.195,437.055 "/>
<polygon fill="none" stroke="#FFFFFF" stroke-width="1.78" points="1120.355,425.829 1120.355,843.01 1169.293,847.448   1244.195,437.055 "/>
<polygon fill="#B0B0B0" points="1244.194,437.055 1169.291,847.449 1214.029,859.624 1357.473,467.885 "/>
<polygon fill="none" stroke="#FFFFFF" stroke-width="1.78" points="1244.194,437.055 1169.291,847.449 1214.029,859.624   1357.473,467.885 "/>
<polygon fill="#B0B0B0" points="1357.474,467.885 1214.031,859.624 1253.428,877.709 1457.129,513.643 "/>
<polygon fill="none" stroke="#FFFFFF" stroke-width="1.78" points="1357.474,467.885 1214.031,859.624 1253.428,877.709   1457.129,513.643 "/>
<polygon fill="#B0B0B0" points="1457.13,513.642 1253.428,877.708 1286.867,899.828 1541.81,569.604 "/>
<polygon fill="none" stroke="#FFFFFF" stroke-width="1.78" points="1457.13,513.642 1253.428,877.708 1286.867,899.828   1541.81,569.604 "/>
<polygon fill="#B0B0B0" points="1541.809,569.604 1286.866,899.828 1314.351,924.131 1611.323,631.145 "/>
<polygon fill="none" stroke="#FFFFFF" stroke-width="1.78" points="1541.809,569.604 1286.866,899.828 1314.351,924.131   1611.323,631.145 "/>
<polygon fill="#B0B0B0" points="1611.323,631.146 1314.351,924.131 1336.185,949.169 1666.62,694.489 "/>
<polygon fill="none" stroke="#FFFFFF" stroke-width="1.78" points="1611.323,631.146 1314.351,924.131 1336.185,949.169   1666.62,694.489 "/>
<polygon fill="#B0B0B0" points="1666.62,694.489 1336.188,949.169 1353.012,973.638 1709.198,756.456 "/>
<polygon fill="none" stroke="#FFFFFF" stroke-width="1.78" points="1666.62,694.489 1336.188,949.169 1353.012,973.638   1709.198,756.456 "/>
<polygon fill="#B0B0B0" points="1709.198,756.456 1353.013,973.638 1365.567,996.659 1740.979,814.697 "/>
<polygon fill="none" stroke="#FFFFFF" stroke-width="1.78" points="1709.198,756.456 1353.013,973.638 1365.567,996.659   1740.979,814.697 "/>
<polygon fill="#B0B0B0" points="1740.978,814.697 1365.566,996.659 1374.656,1017.592 1763.95,867.646 "/>
<polygon fill="none" stroke="#FFFFFF" stroke-width="1.78" points="1740.978,814.697 1365.566,996.659 1374.656,1017.592   1763.95,867.646 "/>
<polygon fill="#B0B0B0" points="1763.949,867.646 1374.656,1017.592 1381.038,1036.128 1780.115,914.566 "/>
<polygon fill="none" stroke="#FFFFFF" stroke-width="1.78" points="1763.949,867.646 1374.656,1017.592 1381.038,1036.128   1780.115,914.566 "/>
<polygon fill="#B0B0B0" points="1780.113,914.566 1381.041,1036.127 1385.384,1052.123 1791.125,955.078 "/>
<polygon fill="none" stroke="#FFFFFF" stroke-width="1.78" points="1780.113,914.566 1381.041,1036.127 1385.384,1052.123   1791.125,955.078 "/>
<polygon fill="#B0B0B0" points="1791.125,955.078 1385.383,1052.123 1388.255,1065.651 1798.39,989.277 "/>
<polygon fill="none" stroke="#FFFFFF" stroke-width="1.78" points="1791.125,955.078 1385.383,1052.123 1388.255,1065.651   1798.39,989.277 "/>
<polygon fill="#B0B0B0" points="1798.389,989.278 1388.254,1065.651 1390.107,1076.877 1803.064,1017.758 "/>
<polygon fill="none" stroke="#FFFFFF" stroke-width="1.78" points="1798.389,989.278 1388.254,1065.651 1390.107,1076.877   1803.064,1017.758 "/>
<polygon fill="#B0B0B0" points="1803.063,1017.758 1390.106,1076.877 1391.27,1086.157 1806.031,1041.206 "/>
<polygon fill="none" stroke="#FFFFFF" stroke-width="1.78" points="1803.063,1017.758 1390.106,1076.877 1391.27,1086.157   1806.031,1041.206 "/>
<polygon fill="#B0B0B0" points="1806.03,1041.206 1391.271,1086.157 1391.982,1093.751 1807.834,1060.454 "/>
<polygon fill="none" stroke="#FFFFFF" stroke-width="1.78" points="1806.03,1041.206 1391.271,1086.157 1391.982,1093.751   1807.834,1060.454 "/>
<polygon fill="#B0B0B0" points="1807.832,1060.453 1391.981,1093.751 1392.407,1100.135 1808.926,1076.592 "/>
<polygon fill="none" stroke="#FFFFFF" stroke-width="1.78" points="1807.832,1060.453 1391.981,1093.751 1392.407,1100.135   1808.926,1076.592 "/>
<polygon fill="#B0B0B0" points="1808.925,1076.593 1392.407,1100.136 1392.668,1105.714 1809.589,1090.737 "/>
<polygon fill="none" stroke="#FFFFFF" stroke-width="1.78" points="1808.925,1076.593 1392.407,1100.136 1392.668,1105.714   1809.589,1090.737 "/>
<polygon fill="#4D4D4D" points="1809.591,1090.737 1392.67,1105.713 1392.812,1111.006 1809.944,1104.122 "/>
<polygon fill="none" stroke="#FFFFFF" stroke-width="1.78" points="1809.591,1090.737 1392.67,1105.713 1392.812,1111.006   1809.944,1104.122 "/>
<polygon fill="#B0B0B0" points="1809.945,1104.123 1392.811,1111.006 1392.861,1116.393 1810.039,1117.746 "/>
<polygon fill="none" stroke="#FFFFFF" stroke-width="1.78" points="1809.945,1104.123 1392.811,1111.006 1392.861,1116.393   1810.039,1117.746 "/>
<polygon fill="#B0B0B0" points="1810.039,1117.746 1392.861,1116.395 1392.766,1122.373 1809.825,1132.912 "/>
<polygon fill="none" stroke="#FFFFFF" stroke-width="1.78" points="1810.039,1117.746 1392.861,1116.395 1392.766,1122.373   1809.825,1132.912 "/>
<polygon fill="#B0B0B0" points="1809.826,1132.912 1392.767,1122.375 1392.503,1129.447 1809.139,1150.806 "/>
<polygon fill="none" stroke="#FFFFFF" stroke-width="1.78" points="1809.826,1132.912 1392.767,1122.375 1392.503,1129.447   1809.139,1150.806 "/>
<polygon fill="#B0B0B0" points="1809.139,1150.806 1392.503,1129.447 1391.934,1137.943 1807.693,1172.308 "/>
<polygon fill="none" stroke="#FFFFFF" stroke-width="1.78" points="1809.139,1150.806 1392.503,1129.447 1391.934,1137.943   1807.693,1172.308 "/>
<polygon fill="#B0B0B0" points="1807.692,1172.306 1391.933,1137.945 1390.866,1148.314 1805.01,1198.558 "/>
<polygon fill="none" stroke="#FFFFFF" stroke-width="1.78" points="1807.692,1172.306 1391.933,1137.945 1390.866,1148.314   1805.01,1198.558 "/>
<polygon fill="#B0B0B0" points="1805.011,1198.558 1390.866,1148.314 1389.036,1160.916 1800.406,1230.408 "/>
<polygon fill="none" stroke="#FFFFFF" stroke-width="1.78" points="1805.011,1198.558 1390.866,1148.314 1389.036,1160.916   1800.406,1230.408 "/>
<polygon fill="#B0B0B0" points="1800.405,1230.408 1389.037,1160.916 1386.072,1175.962 1792.858,1268.5 "/>
<polygon fill="none" stroke="#FFFFFF" stroke-width="1.78" points="1800.405,1230.408 1389.037,1160.916 1386.072,1175.962   1792.858,1268.5 "/>
<polygon fill="#B0B0B0" points="1792.859,1268.498 1386.073,1175.962 1381.421,1193.597 1781.111,1313.117 "/>
<polygon fill="none" stroke="#FFFFFF" stroke-width="1.78" points="1792.859,1268.498 1386.073,1175.962 1381.421,1193.597   1781.111,1313.117 "/>
<polygon fill="#B0B0B0" points="1781.11,1313.117 1381.421,1193.599 1374.515,1213.816 1763.596,1364.287 "/>
<polygon fill="none" stroke="#FFFFFF" stroke-width="1.78" points="1781.11,1313.117 1381.421,1193.599 1374.515,1213.816   1763.596,1364.287 "/>
<polygon fill="#B0B0B0" points="1763.596,1364.287 1374.515,1213.818 1364.57,1236.412 1738.463,1421.484 "/>
<polygon fill="none" stroke="#FFFFFF" stroke-width="1.78" points="1763.596,1364.287 1374.515,1213.818 1364.57,1236.412   1738.463,1421.484 "/>
<polygon fill="#B0B0B0" points="1738.463,1421.482 1364.57,1236.414 1350.803,1260.951 1703.599,1483.591 "/>
<polygon fill="none" stroke="#FFFFFF" stroke-width="1.78" points="1738.463,1421.482 1364.57,1236.414 1350.803,1260.951   1703.599,1483.591 "/>
<polygon fill="#B0B0B0" points="1703.598,1483.591 1350.805,1260.951 1332.388,1286.677 1657.01,1548.716 "/>
<polygon fill="none" stroke="#FFFFFF" stroke-width="1.78" points="1703.598,1483.591 1350.805,1260.951 1332.388,1286.677   1657.01,1548.716 "/>
<polygon fill="#B0B0B0" points="1657.01,1548.716 1332.388,1286.679 1308.58,1312.544 1596.774,1614.197 "/>
<polygon fill="none" stroke="#FFFFFF" stroke-width="1.78" points="1657.01,1548.716 1332.388,1286.679 1308.58,1312.544   1596.774,1614.197 "/>
<polygon fill="#B0B0B0" points="1596.775,1614.195 1308.58,1312.544 1278.868,1337.158 1521.541,1676.519 "/>
<polygon fill="none" stroke="#FFFFFF" stroke-width="1.78" points="1596.775,1614.195 1308.58,1312.544 1278.868,1337.158   1521.541,1676.519 "/>
<polygon fill="#B0B0B0" points="1521.541,1676.519 1278.868,1337.158 1242.984,1358.851 1430.737,1731.414 "/>
<polygon fill="none" stroke="#FFFFFF" stroke-width="1.78" points="1521.541,1676.519 1278.868,1337.158 1242.984,1358.851   1430.737,1731.414 "/>
<polygon fill="#B0B0B0" points="1430.738,1731.414 1242.985,1358.851 1201.215,1375.751 1324.981,1774.132 "/>
<polygon fill="none" stroke="#FFFFFF" stroke-width="1.78" points="1430.738,1731.414 1242.985,1358.851 1201.215,1375.751   1324.981,1774.132 "/>
<polygon fill="#B0B0B0" points="1324.982,1774.132 1201.216,1375.751 1154.364,1385.882 1206.41,1799.812 "/>
<polygon fill="none" stroke="#FFFFFF" stroke-width="1.78" points="1324.982,1774.132 1201.216,1375.751 1154.364,1385.882   1206.41,1799.812 "/>
<polygon fill="#B0B0B0" points="1206.411,1799.812 1154.364,1385.882 1103.836,1387.521 1078.561,1803.916 "/>
<polygon fill="none" stroke="#FFFFFF" stroke-width="1.78" points="1206.411,1799.812 1154.364,1385.882 1103.836,1387.521   1078.561,1803.916 "/>
<polygon fill="#B0B0B0" points="1078.562,1803.917 1103.837,1387.521 1051.672,1379.214 946.511,1782.914 "/>
<polygon fill="none" stroke="#FFFFFF" stroke-width="1.78" points="1078.562,1803.917 1103.837,1387.521 1051.672,1379.214   946.511,1782.914 "/>
<polygon fill="#B0B0B0" points="946.51,1782.914 1051.672,1379.212 1000.384,1360.179 816.69,1734.736 "/>
<polygon fill="none" stroke="#FFFFFF" stroke-width="1.78" points="946.51,1782.914 1051.672,1379.212 1000.384,1360.179   816.69,1734.736 "/>
<polygon fill="#B0B0B0" points="510.247,1437.123 879.298,1242.582 857.891,1188.73 456.04,1300.845 "/>
<polygon fill="none" stroke="#FFFFFF" stroke-width="1.78" points="510.247,1437.123 879.298,1242.582 857.891,1188.73   456.04,1300.845 "/>
<polygon fill="#B0B0B0" points="456.04,1300.845 857.891,1188.73 848.35,1131.892 431.928,1156.953 "/>
<polygon fill="none" stroke="#FFFFFF" stroke-width="1.78" points="456.04,1300.845 857.891,1188.73 848.35,1131.892   431.928,1156.953 "/>
<polygon fill="#B0B0B0" points="431.929,1156.953 848.351,1131.89 850.866,1075.074 438.312,1013.178 "/>
<polygon fill="none" stroke="#FFFFFF" stroke-width="1.78" points="431.929,1156.953 848.351,1131.89 850.866,1075.074   438.312,1013.178 "/>
<polygon fill="#B0B0B0" points="473.295,876.807 864.701,1021.198 888.293,972.664 533.031,753.987 "/>
<polygon fill="none" stroke="#FFFFFF" stroke-width="1.78" points="473.295,876.807 864.701,1021.198 888.293,972.664   533.031,753.987 "/>
<polygon fill="#B0B0B0" points="533.031,753.987 888.291,972.664 919.573,931.274 612.204,649.229 "/>
<polygon fill="none" stroke="#FFFFFF" stroke-width="1.78" points="533.031,753.987 888.291,972.664 919.573,931.274   612.204,649.229 "/>
<polygon fill="#B0B0B0" points="612.205,649.23 919.573,931.275 956.217,898.001 704.906,565.001 "/>
<polygon fill="none" stroke="#FFFFFF" stroke-width="1.78" points="612.205,649.23 919.573,931.275 956.217,898.001   704.906,565.001 "/>
<polygon fill="#B0B0B0" points="704.906,565 956.217,898 995.78,873.151 805.062,502.132 "/>
<polygon fill="none" stroke="#FFFFFF" stroke-width="1.78" points="704.906,565 956.217,898 995.78,873.151 805.062,502.132 "/>
<polygon fill="#B0B0B0" points="805.061,502.131 995.779,873.151 1036.15,856.348 907.231,459.601 "/>
<polygon fill="none" stroke="#FFFFFF" stroke-width="1.78" points="805.061,502.131 995.779,873.151 1036.15,856.348   907.231,459.601 "/>
<polygon fill="#4D4D4D" points="300.78,992.553 739.439,1058.357 757.104,981.51 342.834,828.698 "/>
<line fill="none" stroke="#FFFFFF" stroke-width="1.78" x1="757.104" y1="981.509" x2="739.439" y2="1058.357"/>
<line fill="none" stroke="#16100F" stroke-width="3.5" stroke-linejoin="bevel" x1="491.81" y1="1872.093" x2="1754.438" y2="1872.093"/>
<polygon fill="#16100F" points="486.021,1872.093 495.198,1880.626 495.198,1863.56 "/>
<polygon fill="#16100F" points="1760.227,1872.093 1751.048,1863.56 1751.048,1880.626 "/>
<text transform="matrix(1 0 0 1 1872.8665 1104.1226)" font-family="'Helvetica'" font-size="26">一个片段代表</text>
<text transform="matrix(1 0 0 1 1872.8665 1135.3228)" font-family="'Helvetica'" font-size="26">10个连续镜头</text>
<text transform="matrix(1 0 0 1 1872.8665 1166.5229)" font-family="'Helvetica'" font-size="26">的长度</text>
<text transform="matrix(1 0 0 1 945.3113 1911.0835)" font-family="'Helvetica'" font-size="26">总大小表示</text>
<text transform="matrix(1 0 0 1 945.3113 1942.2837)" font-family="'Helvetica'" font-size="26">电影总时长</text>
<text transform="matrix(1 0 0 1 261.9456 1542.6362)" font-family="'Helvetica'" font-size="26">电影/章节</text>
<text transform="matrix(1 0 0 1 261.9456 1573.8364)" font-family="'Helvetica'" font-size="26">最主要的颜色</text>
<text transform="matrix(1 0 0 1 100.9534 1073.0649)" font-family="'Helvetica'" font-size="26">柱体摆动速度</text>
<text transform="matrix(1 0 0 1 100.9534 1104.2651)" font-family="'Helvetica'" font-size="26">代表了 </text>
<text transform="matrix(1 0 0 1 100.9534 1135.4644)" font-family="'Helvetica'" font-size="26">镜头移动速度</text>
<text transform="matrix(1 0 0 1 856.8904 425.8286)" font-family="'Helvetica'" font-size="26">结束</text>
<text transform="matrix(1 0 0 1 1118.0447 391.8286)" font-family="'Helvetica'" font-size="26">开始</text>
<g>
	
		<rect x="1482.795" y="565.001" fill="#FFFFFF" stroke="#4D4D4D" stroke-width="2" stroke-miterlimit="10" width="334" height="187.874"/>
	
		<line fill="none" stroke="#4D4D4D" stroke-width="2" stroke-miterlimit="10" x1="1482.795" y1="565.001" x2="1816.795" y2="752.875"/>
	
		<line fill="none" stroke="#4D4D4D" stroke-width="2" stroke-miterlimit="10" x1="1816.795" y1="565.001" x2="1482.795" y2="752.875"/>
</g>
<text transform="matrix(1 0 0 1 1569.0833 484.1226)" enable-background="new    "><tspan x="0" y="0" font-family="'Helvetica'" font-size="26">拖动鼠标</tspan><tspan x="0" y="31.2" font-family="'Helvetica'" font-size="26">显示画面</tspan></text>
</svg>